<svg id="Layer_1" data-name="Layer 1" xmlns="http://www.w3.org/2000/svg" viewBox="0 0 487 144"><defs><style>.cls-1{fill:#fff;}</style></defs><title>Btn_App_Download</title><path class="cls-1" d="M471.88,2C480.17,2,485,7,485,15.39V125.78c0,8-5,16.22-13.47,16.22H18.25C9.9,142,2,134.12,2,125.78V15.39A12.05,12.05,0,0,1,6.83,5.73,18.7,18.7,0,0,1,18.25,2H472m-.23-2H18.25C8.82,0,0,6,0,15.39V125.78C0,135.2,8.82,144,18.25,144H471.53c9.42,0,15.47-8.8,15.47-18.22V15.39C487,6,481.18,0,471.77,0Z"/><path class="cls-1" d="M110.05,69.82c-.11-11.65,9.54-17.32,10-17.58a21.45,21.45,0,0,0-16.9-9.14c-7.11-.75-14,4.26-17.63,4.26s-9.27-4.18-15.28-4.06A22.51,22.51,0,0,0,51.28,54.85C43.09,69,49.2,89.86,57,101.33,61,106.94,65.56,113.21,71.56,113s8.07-3.75,15.16-3.75,9.08,3.75,15.21,3.6c6.3-.1,10.27-5.64,14.06-11.3a46.42,46.42,0,0,0,6.43-13.1C122.27,88.4,110.17,83.78,110.05,69.82Z"/><path class="cls-1" d="M98.49,35.56c3.16-4,5.32-9.33,4.72-14.78-4.57.2-10.29,3.16-13.58,7-2.91,3.4-5.52,9-4.84,14.23C89.92,42.42,95.19,39.45,98.49,35.56Z"/><path class="cls-1" d="M195.06,112.18h-8.21L182.36,98H166.73l-4.28,14.13h-8l15.49-48.1h9.56ZM181,92.12l-4.07-12.56q-.64-1.93-2.43-9.06h-.14q-.71,3.07-2.28,9.06l-4,12.56Z"/><path class="cls-1" d="M234.88,94.41q0,8.85-4.78,14A14,14,0,0,1,219.47,113q-6.85,0-9.85-4.92h-.14v18.27h-7.71V88.91q0-5.57-.29-11.42h6.78l.43,5.5h.14q3.85-6.21,11.7-6.21a12.88,12.88,0,0,1,10.24,4.85Q234.88,86.49,234.88,94.41Zm-7.85.28a14.29,14.29,0,0,0-2.28-8.35A7.89,7.89,0,0,0,218,82.92a8,8,0,0,0-5.17,1.89,8.77,8.77,0,0,0-3,5,10.1,10.1,0,0,0-.36,2.35V97.9a9.26,9.26,0,0,0,2.32,6.39,7.7,7.7,0,0,0,6,2.61,7.89,7.89,0,0,0,6.78-3.35A14.79,14.79,0,0,0,227,94.69Z"/><path class="cls-1" d="M274.78,94.41q0,8.85-4.79,14A14,14,0,0,1,259.36,113q-6.85,0-9.85-4.92h-.14v18.27h-7.71V88.91q0-5.57-.29-11.42h6.78l.43,5.5h.14q3.85-6.21,11.7-6.21a12.89,12.89,0,0,1,10.24,4.85Q274.77,86.49,274.78,94.41Zm-7.85.28a14.28,14.28,0,0,0-2.29-8.35,7.88,7.88,0,0,0-6.71-3.43,8,8,0,0,0-5.18,1.89,8.78,8.78,0,0,0-3,5,10.2,10.2,0,0,0-.36,2.35V97.9a9.28,9.28,0,0,0,2.31,6.39,7.7,7.7,0,0,0,6,2.61,7.89,7.89,0,0,0,6.78-3.35A14.79,14.79,0,0,0,266.93,94.69Z"/><path class="cls-1" d="M319.38,98.69a12.82,12.82,0,0,1-4.27,10q-4.7,4.21-13.1,4.21-7.76,0-12.47-3l1.79-6.42a21.11,21.11,0,0,0,11.14,3.07,10.53,10.53,0,0,0,6.78-2,6.42,6.42,0,0,0,2.42-5.26,6.7,6.7,0,0,0-2-4.93A18.62,18.62,0,0,0,303,90.67Q290.4,86,290.41,76.87a12.22,12.22,0,0,1,4.43-9.72q4.42-3.79,11.78-3.79a23.34,23.34,0,0,1,10.91,2.28l-1.93,6.28a19,19,0,0,0-9.21-2.21,9.3,9.3,0,0,0-6.35,2,5.71,5.71,0,0,0-1.93,4.35,5.87,5.87,0,0,0,2.21,4.71,25,25,0,0,0,7,3.71q6.21,2.5,9.14,5.85A12.27,12.27,0,0,1,319.38,98.69Z"/><path class="cls-1" d="M344.86,83.28h-8.49v16.84q0,6.42,4.5,6.42a13.83,13.83,0,0,0,3.42-.36l.21,5.85a17.43,17.43,0,0,1-6,.85,9.25,9.25,0,0,1-7.14-2.78q-2.56-2.78-2.57-9.35V83.28h-5.06V77.49h5.06V71.14l7.57-2.28v8.64h8.49Z"/><path class="cls-1" d="M383.19,94.55q0,8-4.57,13.13Q373.83,113,365.91,113q-7.64,0-12.16-5.07a18.45,18.45,0,0,1-4.53-12.77q0-8.06,4.67-13.2t12.59-5.14a15.84,15.84,0,0,1,12.28,5.07Q383.19,86.78,383.19,94.55Zm-8,.25a15.62,15.62,0,0,0-2.07-8.23,7.62,7.62,0,0,0-6.92-4.15,7.73,7.73,0,0,0-7.07,4.15,15.91,15.91,0,0,0-2.07,8.38,15.6,15.6,0,0,0,2.07,8.23A7.87,7.87,0,0,0,373,103.1,15.63,15.63,0,0,0,375.19,94.8Z"/><path class="cls-1" d="M408.23,84.27a13.34,13.34,0,0,0-2.43-.21,7.29,7.29,0,0,0-6.28,3.07A11.54,11.54,0,0,0,397.6,94v18.2h-7.7L390,88.42q0-6-.29-10.92h6.71l.28,6.64h.21a11.84,11.84,0,0,1,3.85-5.49,9.32,9.32,0,0,1,5.57-1.86,12.2,12.2,0,0,1,1.93.14Z"/><path class="cls-1" d="M442.7,93.2a18.12,18.12,0,0,1-.28,3.49H419.3q.14,5.14,3.35,7.85a11.45,11.45,0,0,0,7.56,2.43,25.59,25.59,0,0,0,9.35-1.64l1.21,5.35a29,29,0,0,1-11.63,2.14q-8.07,0-12.67-4.75t-4.6-12.74a19.87,19.87,0,0,1,4.29-13.06,14.77,14.77,0,0,1,12.13-5.56q7.5,0,11.35,5.56A18.75,18.75,0,0,1,442.7,93.2Zm-7.35-2a10.48,10.48,0,0,0-1.5-5.92,6.73,6.73,0,0,0-6.14-3.21,7.31,7.31,0,0,0-6.14,3.14,11.47,11.47,0,0,0-2.28,6Z"/><path class="cls-1" d="M178.45,34.48q0,6.38-3.82,9.61-3.54,3-10.06,3a46.92,46.92,0,0,1-5.54-.28V23.54a40.76,40.76,0,0,1,6.52-.49q6.21,0,9.36,2.7Q178.45,28.8,178.45,34.48Zm-4,.11a8.63,8.63,0,0,0-2.19-6.35Q170.07,26,165.86,26a16.16,16.16,0,0,0-3.05.25V44a20.23,20.23,0,0,0,2.56.11,9,9,0,0,0,6.71-2.42Q174.45,39.22,174.46,34.59Z"/><path class="cls-1" d="M199.63,38.2a9.34,9.34,0,0,1-2.25,6.45,8,8,0,0,1-6.24,2.6,7.62,7.62,0,0,1-6-2.49,9.07,9.07,0,0,1-2.22-6.28A9.26,9.26,0,0,1,185.23,32a8,8,0,0,1,6.19-2.52,7.79,7.79,0,0,1,6,2.49A9,9,0,0,1,199.63,38.2Zm-3.93.12a7.69,7.69,0,0,0-1-4,3.74,3.74,0,0,0-3.4-2,3.8,3.8,0,0,0-3.47,2,7.83,7.83,0,0,0-1,4.11,7.7,7.7,0,0,0,1,4,3.87,3.87,0,0,0,6.84,0A7.66,7.66,0,0,0,195.7,38.32Z"/><path class="cls-1" d="M228,29.82l-5.33,17h-3.47L217,39.46a54.72,54.72,0,0,1-1.37-5.5h-.07a40.12,40.12,0,0,1-1.37,5.5l-2.35,7.4h-3.51l-5-17h3.89l1.93,8.1q.7,2.87,1.16,5.47h.07q.42-2.14,1.4-5.43l2.42-8.13h3.09l2.32,8q.84,2.91,1.37,5.61h.11a53.32,53.32,0,0,1,1.16-5.61l2.07-8Z"/><path class="cls-1" d="M247.66,46.86h-3.79V37.1q0-4.51-3.43-4.51a3.42,3.42,0,0,0-2.74,1.24,4.39,4.39,0,0,0-1.05,2.92V46.86h-3.79V34.7q0-2.25-.14-4.87h3.33l.18,2.66h.11a5.47,5.47,0,0,1,2-2.06,6.39,6.39,0,0,1,3.43-1,5.44,5.44,0,0,1,4,1.54,7.49,7.49,0,0,1,2,5.64Z"/><path class="cls-1" d="M258.11,46.86h-3.78V22h3.78Z"/><path class="cls-1" d="M280.41,38.2a9.34,9.34,0,0,1-2.25,6.45,8,8,0,0,1-6.24,2.6,7.61,7.61,0,0,1-6-2.49,9.07,9.07,0,0,1-2.22-6.28A9.26,9.26,0,0,1,266,32a8,8,0,0,1,6.18-2.52,7.8,7.8,0,0,1,6,2.49A9,9,0,0,1,280.41,38.2Zm-3.93.12a7.69,7.69,0,0,0-1-4,3.74,3.74,0,0,0-3.4-2,3.79,3.79,0,0,0-3.47,2,7.83,7.83,0,0,0-1,4.11,7.7,7.7,0,0,0,1,4,3.82,3.82,0,0,0,3.44,2,3.78,3.78,0,0,0,3.4-2.07A7.63,7.63,0,0,0,276.48,38.32Z"/><path class="cls-1" d="M298.74,46.86h-3.4l-.28-2H295a5.83,5.83,0,0,1-5,2.35,5.13,5.13,0,0,1-3.89-1.54,4.84,4.84,0,0,1-1.33-3.47,5.3,5.3,0,0,1,2.61-4.77,13.6,13.6,0,0,1,7.35-1.61v-.32q0-3.36-3.54-3.37a7.91,7.91,0,0,0-4.44,1.26L286,30.94a10.9,10.9,0,0,1,5.85-1.47q6.68,0,6.69,7v6.28A26.65,26.65,0,0,0,298.74,46.86ZM294.81,41V38.38q-6.27-.11-6.27,3.43a2.57,2.57,0,0,0,.73,2,2.65,2.65,0,0,0,1.85.67,3.8,3.8,0,0,0,2.32-.79,3.22,3.22,0,0,0,1.31-2A3.06,3.06,0,0,0,294.81,41Z"/><path class="cls-1" d="M320.27,46.86h-3.36l-.18-2.74h-.11a5.66,5.66,0,0,1-5.47,3.12A6.41,6.41,0,0,1,306,44.83a9.42,9.42,0,0,1-2-6.28,9.87,9.87,0,0,1,2.21-6.7,6.79,6.79,0,0,1,5.26-2.38q3.43,0,4.8,2.31h.07V22h3.79V42.27Q320.14,44.76,320.27,46.86Zm-3.93-7.19V36.83a5.42,5.42,0,0,0-.11-1.19,4.3,4.3,0,0,0-1.37-2.3,3.72,3.72,0,0,0-2.53-.93A3.89,3.89,0,0,0,309,34.1a7.22,7.22,0,0,0-1.21,4.31,6.74,6.74,0,0,0,1.16,4.1,3.9,3.9,0,0,0,3.31,1.68,3.66,3.66,0,0,0,3-1.4A4.69,4.69,0,0,0,316.34,39.67Z"/><path class="cls-1" d="M352.67,38.2a9.34,9.34,0,0,1-2.24,6.45,8,8,0,0,1-6.24,2.6,7.63,7.63,0,0,1-6-2.49A9.07,9.07,0,0,1,336,38.48,9.26,9.26,0,0,1,338.27,32a8,8,0,0,1,6.19-2.52,7.78,7.78,0,0,1,6,2.49A9,9,0,0,1,352.67,38.2Zm-3.93.12a7.69,7.69,0,0,0-1-4,3.75,3.75,0,0,0-3.4-2,3.81,3.81,0,0,0-3.47,2,7.83,7.83,0,0,0-1,4.11,7.7,7.7,0,0,0,1,4,3.87,3.87,0,0,0,6.84,0A7.69,7.69,0,0,0,348.74,38.32Z"/><path class="cls-1" d="M373,46.86h-3.78V37.1q0-4.51-3.44-4.51a3.41,3.41,0,0,0-2.73,1.24A4.39,4.39,0,0,0,362,36.75V46.86h-3.79V34.7q0-2.25-.13-4.87h3.33l.18,2.66h.11a5.52,5.52,0,0,1,2-2.06,6.4,6.4,0,0,1,3.44-1,5.43,5.43,0,0,1,4,1.54c1.31,1.26,2,3.14,2,5.64Z"/><path class="cls-1" d="M398.53,32.66h-4.17v8.28c0,2.1.74,3.16,2.21,3.16a6.73,6.73,0,0,0,1.69-.18l.1,2.88a8.54,8.54,0,0,1-2.94.42,4.53,4.53,0,0,1-3.5-1.37c-.85-.91-1.26-2.44-1.26-4.59V32.66h-2.49V29.82h2.49V26.7l3.71-1.12v4.24h4.17Z"/><path class="cls-1" d="M418.58,46.86h-3.79V37.17q0-4.58-3.43-4.58a3.61,3.61,0,0,0-3.61,2.66,4.74,4.74,0,0,0-.18,1.36V46.86h-3.78V22h3.78V32.27h.07a5.73,5.73,0,0,1,5.12-2.8,5.29,5.29,0,0,1,3.9,1.54,7.76,7.76,0,0,1,1.93,5.72Z"/><path class="cls-1" d="M439.27,37.53a9.06,9.06,0,0,1-.14,1.72H427.77a5,5,0,0,0,1.65,3.86,5.64,5.64,0,0,0,3.72,1.19,12.58,12.58,0,0,0,4.6-.81l.59,2.63a14.28,14.28,0,0,1-5.72,1.05,8.25,8.25,0,0,1-6.22-2.33,8.59,8.59,0,0,1-2.26-6.26,9.76,9.76,0,0,1,2.1-6.42,7.24,7.24,0,0,1,6-2.73,6.34,6.34,0,0,1,5.57,2.73A9.16,9.16,0,0,1,439.27,37.53Zm-3.61-1a5.09,5.09,0,0,0-.73-2.91,3.31,3.31,0,0,0-3-1.58,3.6,3.6,0,0,0-3,1.54,5.71,5.71,0,0,0-1.12,2.95Z"/></svg>