<svg id="Layer_1" data-name="Layer 1" xmlns="http://www.w3.org/2000/svg" xmlns:xlink="http://www.w3.org/1999/xlink" viewBox="0 0 487 144"><defs><style>.cls-1,.cls-8{fill:#fff;}.cls-2{fill:url(#linear-gradient);}.cls-3{fill:url(#linear-gradient-2);}.cls-4{fill:url(#linear-gradient-3);}.cls-5{fill:url(#linear-gradient-4);}.cls-6{opacity:0.2;}.cls-6,.cls-7,.cls-8{isolation:isolate;}.cls-7{opacity:0.12;}.cls-8{opacity:0.25;}</style><linearGradient id="linear-gradient" x1="75.11" y1="113.23" x2="14.5" y2="52.63" gradientTransform="matrix(1, 0, 0, -1, 0, 146)" gradientUnits="userSpaceOnUse"><stop offset="0" stop-color="#00a0ff"/><stop offset="0.01" stop-color="#00a1ff"/><stop offset="0.26" stop-color="#00beff"/><stop offset="0.51" stop-color="#00d2ff"/><stop offset="0.76" stop-color="#00dfff"/><stop offset="1" stop-color="#00e3ff"/></linearGradient><linearGradient id="linear-gradient-2" x1="118.57" y1="72.45" x2="31.19" y2="72.45" gradientTransform="matrix(1, 0, 0, -1, 0, 146)" gradientUnits="userSpaceOnUse"><stop offset="0" stop-color="#ffe000"/><stop offset="0.41" stop-color="#ffbd00"/><stop offset="0.78" stop-color="orange"/><stop offset="1" stop-color="#ff9c00"/></linearGradient><linearGradient id="linear-gradient-3" x1="86.04" y1="64.17" x2="3.86" y2="-18.01" gradientTransform="matrix(1, 0, 0, -1, 0, 146)" gradientUnits="userSpaceOnUse"><stop offset="0" stop-color="#ff3a44"/><stop offset="1" stop-color="#c31162"/></linearGradient><linearGradient id="linear-gradient-4" x1="22.74" y1="144.05" x2="59.44" y2="107.35" gradientTransform="matrix(1, 0, 0, -1, 0, 146)" gradientUnits="userSpaceOnUse"><stop offset="0" stop-color="#32a071"/><stop offset="0.07" stop-color="#2da771"/><stop offset="0.48" stop-color="#15cf74"/><stop offset="0.8" stop-color="#06e775"/><stop offset="1" stop-color="#00f076"/></linearGradient></defs><title>Btn_App_Download</title><path class="cls-1" d="M167.62,38.31a9.78,9.78,0,0,1-2.69,7.23,10.5,10.5,0,0,1-8,3.21,11.16,11.16,0,0,1-11.26-11.32A11.16,11.16,0,0,1,157,26.11a11.18,11.18,0,0,1,4.45.91,8.94,8.94,0,0,1,3.39,2.42l-1.9,1.91A7.32,7.32,0,0,0,157,28.78a8.38,8.38,0,0,0-8.41,8.65A8.52,8.52,0,0,0,163,43.66a6.82,6.82,0,0,0,1.82-4.39H157v-2.6h10.5A9.18,9.18,0,0,1,167.62,38.31Z"/><path class="cls-1" d="M184.26,29.26H174.4v6.87h8.9v2.6h-8.9V45.6h9.87v2.66H171.62V26.6h12.65Z"/><path class="cls-1" d="M196,48.26h-2.79v-19h-6.05V26.6h14.89v2.66H196Z"/><path class="cls-1" d="M212.83,48.26V26.6h2.78V48.26Z"/><path class="cls-1" d="M228,48.26h-2.79v-19h-6.05V26.6H234v2.66H228Z"/><path class="cls-1" d="M262.2,45.46a11.25,11.25,0,0,1-15.89,0,11.08,11.08,0,0,1-3.19-8,11.08,11.08,0,0,1,3.19-8,11.21,11.21,0,0,1,15.87,0,11.08,11.08,0,0,1,3.21,8A11.09,11.09,0,0,1,262.2,45.46Zm-13.83-1.81a8.33,8.33,0,0,0,11.77,0,8.48,8.48,0,0,0,2.41-6.22,8.48,8.48,0,0,0-2.41-6.22,8.33,8.33,0,0,0-11.77,0A8.49,8.49,0,0,0,246,37.43,8.49,8.49,0,0,0,248.37,43.65Z"/><path class="cls-1" d="M269.3,48.26V26.6h3.39l10.53,16.85h.12l-.12-4.18V26.6H286V48.26H283.1l-11-17.67H272l.12,4.18v13.5Z"/><path class="cls-1" d="M242.43,79.87a15.36,15.36,0,1,0,15.42,15.36A15.14,15.14,0,0,0,242.43,79.87Zm0,24.67c-4.65,0-8.67-3.84-8.67-9.31s4-9.31,8.67-9.31,8.67,3.78,8.67,9.31S247.09,104.53,242.43,104.53ZM208.8,79.87a15.36,15.36,0,1,0,15.42,15.36A15.14,15.14,0,0,0,208.8,79.87Zm0,24.67c-4.65,0-8.67-3.84-8.67-9.31s4-9.31,8.67-9.31,8.67,3.78,8.67,9.31S213.46,104.53,208.8,104.53Zm-40-20v6.52h15.59c-.47,3.67-1.69,6.34-3.55,8.2a16,16,0,0,1-12,4.77,17.34,17.34,0,0,1,0-34.67A16.62,16.62,0,0,1,180.55,74l4.6-4.6a22.73,22.73,0,0,0-16.35-6.57c-13.15,0-24.2,10.7-24.2,23.85s11.05,23.85,24.2,23.85c7.1,0,12.45-2.33,16.64-6.69s5.64-10.36,5.64-15.24a21.2,21.2,0,0,0-.35-4.07Zm163.61,5.06c-1.28-3.43-5.18-9.77-13.15-9.77s-14.49,6.22-14.49,15.36A15,15,0,0,0,320,110.58a15.28,15.28,0,0,0,12.8-6.81l-5.24-3.49a8.77,8.77,0,0,1-7.56,4.25,7.81,7.81,0,0,1-7.45-4.65l20.54-8.49Zm-20.94,5.12a8.42,8.42,0,0,1,8-9c2.68,0,4.95,1.34,5.7,3.26Zm-16.7,14.89h6.75V64.51h-6.75ZM283.71,83.3h-.23a10.64,10.64,0,0,0-8.09-3.43c-7.68,0-14.72,6.75-14.72,15.42s7,15.3,14.72,15.3a10.47,10.47,0,0,0,8.09-3.49h.23v2.21c0,5.88-3.14,9-8.2,9a8.5,8.5,0,0,1-7.74-5.47l-5.88,2.44a14.64,14.64,0,0,0,13.61,9.08c7.91,0,14.6-4.65,14.6-16V80.8h-6.4ZM276,104.53c-4.65,0-8.55-3.9-8.55-9.25s3.9-9.37,8.55-9.37,8.2,4,8.2,9.37S280.57,104.53,276,104.53Zm88-40H347.87v45.14h6.74V92.55H364c7.47,0,14.81-5.41,14.81-14S371.49,64.51,364,64.51Zm.17,21.76h-9.58V70.79h9.58a7.74,7.74,0,1,1,0,15.47Zm41.64-6.48c-4.88,0-9.93,2.15-12,6.91l6,2.5c1.28-2.5,3.66-3.31,6.16-3.31,3.48,0,7,2.09,7.09,5.81v.46a14.91,14.91,0,0,0-7-1.74c-6.45,0-13,3.54-13,10.16,0,6,5.28,9.93,11.21,9.93a9.51,9.51,0,0,0,8.6-4.41H413v3.48h6.5V92.27C419.54,84.25,413.56,79.78,405.84,79.78ZM405,104.52c-2.21,0-5.29-1.1-5.29-3.83,0-3.48,3.83-4.82,7.14-4.82A12,12,0,0,1,413,97.38,8.17,8.17,0,0,1,405,104.52Zm38.22-23.75-7.72,19.57h-.23l-8-19.57H420l12,27.35-6.85,15.22h7l18.53-42.57Zm-60.69,28.88h6.74V64.51h-6.74Z"/><path class="cls-2" d="M34.07,28.54a7.23,7.23,0,0,0-1.67,5.07v79.86a7.23,7.23,0,0,0,1.67,5.07l.27.26L79.08,74.07V73L34.34,28.28Z"/><path class="cls-3" d="M94,89,79.08,74.07V73L94,58.1l.34.19,17.67,10c5,2.87,5,7.56,0,10.43l-17.67,10Z"/><path class="cls-4" d="M94.33,88.8,79.08,73.54l-45,45c1.66,1.76,4.41,2,7.5.22l52.75-30"/><path class="cls-5" d="M94.33,58.29l-52.75-30c-3.09-1.76-5.84-1.54-7.5.22l45,45Z"/><path class="cls-6" d="M94,88.46,41.57,118.24c-2.93,1.67-5.55,1.55-7.24,0h0l-.27.27h0l.27.26h0c1.68,1.52,4.3,1.63,7.24,0l52.75-30Z"/><path class="cls-7" d="M34.07,118a7.23,7.23,0,0,1-1.67-5.07v.53a7.23,7.23,0,0,0,1.67,5.07l.27-.27Z"/><path class="cls-7" d="M112,78.23,94,88.46l.34.34,17.67-10c2.52-1.43,3.79-3.32,3.79-5.21h0C115.57,75.25,114.28,76.93,112,78.23Z"/><path class="cls-8" d="M41.57,28.85l70.42,40c2.29,1.3,3.57,3,3.79,4.69h0c0-1.89-1.26-3.78-3.79-5.21l-70.42-40c-5-2.87-9.18-.49-9.18,5.29v.53C32.4,28.36,36.53,26,41.57,28.85Z"/><path class="cls-1" d="M471.88,2C480.17,2,485,7,485,15.39V125.78c0,8-5,16.22-13.47,16.22H18.25C9.9,142,2,134.12,2,125.78V15.39A12.05,12.05,0,0,1,6.83,5.73,18.7,18.7,0,0,1,18.25,2H472m-.23-2H18.25C8.82,0,0,6,0,15.39V125.78C0,135.2,8.82,144,18.25,144H471.53c9.42,0,15.47-8.8,15.47-18.22V15.39C487,6,481.18,0,471.77,0Z"/></svg>