<svg id="Layer_1" data-name="Layer 1" xmlns="http://www.w3.org/2000/svg" viewBox="0 0 215 65"><defs><style>.cls-1{fill:#fff;}.cls-2{fill:#ea9023;}.cls-3{fill:#005e9e;}.cls-4{fill:#d92127;}.cls-5{fill:#88bf45;}.cls-6{fill:#e11e4f;}</style></defs><title>LogoLockUp</title><path class="cls-1" d="M60.61,1.8A24.9,24.9,0,0,1,61,4.33q0.21,2,.49,4.82t0.63,6.41q0.35,3.56.73,7.29t0.8,7.39Q64,33.91,64.52,37t1,5.42a15.16,15.16,0,0,0,1,3.31,2.52,2.52,0,0,0,2.37.7,7.19,7.19,0,0,0,2.72-1.3,16.23,16.23,0,0,0,2.72-2.57q1.32-1.55,2.48-3.1t2-2.85q0.84-1.3,1.19-1.8c0.19,0.28.35,0.54,0.49,0.77a4.41,4.41,0,0,1,.21.67,0.48,0.48,0,0,1-.07.46,36.29,36.29,0,0,1-2,3.56q-1.12,1.8-2.3,3.45a32.77,32.77,0,0,1-2.37,3,24.22,24.22,0,0,1-2.09,2.08,16.55,16.55,0,0,1-3.66,1.9,3.71,3.71,0,0,1-3.39-.92,9.13,9.13,0,0,1-1.19-2.5A26.13,26.13,0,0,1,62.88,44q-0.31-1.86-.59-4.19t-0.63-5.35q-0.84-8.38-1.61-14t-1.4-9.26q-0.63-3.59-1-5.35T57.05,3.42a4.78,4.78,0,0,0,.73-0.6,4.12,4.12,0,0,1,.7-0.56,3.33,3.33,0,0,1,.87-0.39A3.51,3.51,0,0,1,60.61,1.8Z"/><path class="cls-1" d="M88,19.82q0.7-.14.84,0.84a1.82,1.82,0,0,1-.28,1.48,3.53,3.53,0,0,0-1,1.09,1.22,1.22,0,0,1-1,.6,2.7,2.7,0,0,0-.73,0q-0.31,0-.52-1.16a5.78,5.78,0,0,1,.87-1.55A4.2,4.2,0,0,1,88,19.82ZM88.25,29q0.35,3.38.49,7.43t0.49,8.48q0.28,2.25.56,3.52T90.2,50.8a3.26,3.26,0,0,1-1.74,0,7,7,0,0,1-1.19-.6Q87.13,49,87,46.44t-0.35-5.67q-0.17-3.06-.35-5.95t-0.31-4.58a1.13,1.13,0,0,0,.45-0.42,2.73,2.73,0,0,1,.38-0.49A1.64,1.64,0,0,1,87.34,29,1.49,1.49,0,0,1,88.25,29Z"/><path class="cls-1" d="M118.4,13.14h-1.08a1.57,1.57,0,0,1-.42,0,0.12,0.12,0,0,1-.1-0.11,0.56,0.56,0,0,0-.07-0.21,1.06,1.06,0,0,1-.38-0.67,11.24,11.24,0,0,0-.66-1.44,6.36,6.36,0,0,0-1.08-1.44A2.14,2.14,0,0,0,113,8.56a3.49,3.49,0,0,0-3.21.53,7.32,7.32,0,0,0-2.06,3,19.12,19.12,0,0,0-1.19,4.47q-0.38,2.54-.56,5.1t-0.17,4.93q0,2.36-.07,3.84l2.2-.11,1.61-.07,1.36-.07q0.63,0,1.4,0a1.41,1.41,0,0,1,.7.42,3.87,3.87,0,0,1,.59.77,3.67,3.67,0,0,1,.35.77c0.07,0.24.06,0.35,0,.35q-1.26.21-2.23,0.28l-1.88.14q-0.91.07-1.85,0.11l-2.13.11q0.07,3.59.28,6.44t0.38,5.42q0.17,2.57.35,5t0.24,5.21a0.64,0.64,0,0,1-.73.53q-0.59,0-1.22-.11a0.4,0.4,0,0,1-.28-0.07,1.55,1.55,0,0,1-.11-0.63q0-.56-0.07-1.9t-0.14-3.8q-0.1-2.46-.31-6.34t-0.63-9.58l-2.58.21-1.71.11q-0.73,0-1.43,0c-0.47,0-1,0-1.74.07-0.33,0-.49-0.08-0.49-0.25a1.65,1.65,0,0,1,.17-0.63,4.75,4.75,0,0,1,.42-0.74,4.49,4.49,0,0,0,.31-0.49A17.19,17.19,0,0,1,99,31.23l4.47-.49a76.78,76.78,0,0,1,.1-11.3,38.48,38.48,0,0,1,1.33-7.36,12.69,12.69,0,0,1,2-4.19A6,6,0,0,1,109,6.09,5.36,5.36,0,0,1,113.34,6a9.05,9.05,0,0,1,3.18,2.36,9.42,9.42,0,0,1,1.78,3Q118.82,12.85,118.4,13.14Z"/><path class="cls-1" d="M122.8,30.88l1.19-.39a2.59,2.59,0,0,1,1.61-.11,3.91,3.91,0,0,1,3.11,1.06q1.08,1.13.17,4.37a17.88,17.88,0,0,1-3.53,6,34.86,34.86,0,0,1-5.2,4.58,2.77,2.77,0,0,0,2.09,2,5.28,5.28,0,0,0,2.93-.46,14.29,14.29,0,0,0,3-1.8q1.47-1.13,2.37-2Q132,42.92,132.88,42a23.14,23.14,0,0,0,1.85-2.15c0.14-.09.22-0.08,0.24,0a1.5,1.5,0,0,1,0,.53c0,0.24-.12.56-0.21,1s-0.28.62-.42,0.88a5.19,5.19,0,0,1-.59.85q-0.38.46-1,1.09t-1.54,1.69q-1,1-2,1.94a13.58,13.58,0,0,1-2.06,1.65,7.06,7.06,0,0,1-2.37,1,7.82,7.82,0,0,1-3,0,9.94,9.94,0,0,1-2.23-1.06,5.3,5.3,0,0,1-1.29-1.16,5.22,5.22,0,0,1-.66-1.09,4.33,4.33,0,0,1-.28-0.84,14.63,14.63,0,0,1-.28-3.8,21.74,21.74,0,0,1,1.4-6.2,17.72,17.72,0,0,1,2-3.34A7.86,7.86,0,0,1,122.8,30.88Zm-3.07,12.46A20.36,20.36,0,0,0,121.86,42a15.7,15.7,0,0,0,2.3-2A13.76,13.76,0,0,0,126,37.36a6.5,6.5,0,0,0,.87-3,2.1,2.1,0,0,0-.07-1.48,0.38,0.38,0,0,0-.28-0.21,2.15,2.15,0,0,0-2.37.35A8.77,8.77,0,0,0,122,35.67a19,19,0,0,0-1.64,3.77A12.85,12.85,0,0,0,119.73,43.34Z"/><path class="cls-1" d="M168.45,4.48q-2.37-.07-4.89.11t-5,.46q-2.44.28-4.75,0.63l-4.19.63q0.21,5.35.42,10.63t0.52,10.67q0.31,5.39.77,10.95t1.15,11.55a0.63,0.63,0,0,1-.49.49,2.61,2.61,0,0,1-1,.21,3.36,3.36,0,0,1-1.08-.18,1,1,0,0,1-.66-0.74q-0.28-3.38-.49-7.6t-0.42-8.62q-0.21-4.4-.45-8.73t-0.52-8q-0.28-3.66-.59-6.34a23.87,23.87,0,0,0-.66-3.8,78.92,78.92,0,0,0-8.55.49q-4.5.49-8.69,1a2,2,0,0,1-1.19-.07,1,1,0,0,1-.59-0.56,0.8,0.8,0,0,1,.31-0.77A4.5,4.5,0,0,1,129,6q5-.91,9.7-1.51t9.21-1.06l9.14-.92q4.61-.46,9.49-1.16a1.33,1.33,0,0,1,.8.39,3.65,3.65,0,0,1,.77.92,4.16,4.16,0,0,1,.45,1.06A0.65,0.65,0,0,1,168.45,4.48Z"/><path class="cls-1" d="M177.1,30.1q-0.07.42-.31,1.76T176.26,35q-0.28,1.8-.49,3.77t-0.24,3.73a14.08,14.08,0,0,0,.21,3,2,2,0,0,0,.8,1.51,3,3,0,0,0,3.28-.53,27.24,27.24,0,0,0,3.91-4c0.14,0,.15.19,0,0.56a6.21,6.21,0,0,1-.56,1.23l-0.77,1.34a4.78,4.78,0,0,1-.59.88,11.53,11.53,0,0,1-1.61,1.58A9.41,9.41,0,0,1,178,49.5a4.79,4.79,0,0,1-2.27.46A2.22,2.22,0,0,1,174,48.69a6.37,6.37,0,0,1-.42-2.08,22.11,22.11,0,0,1,0-2.5q0.07-1.27.21-2.32T174,40.24a38.06,38.06,0,0,1-3.35,5.21,21.07,21.07,0,0,1-3.7,3.87,6.36,6.36,0,0,1-3.35,1.51q-1.54.11-2.37-1.8a8.8,8.8,0,0,1,0-4.12,15.67,15.67,0,0,1,1.47-4.12,44.43,44.43,0,0,1,3.07-4.65,20.9,20.9,0,0,1,3.42-3.59,12.17,12.17,0,0,1,3.8-2.15A8.55,8.55,0,0,1,177.1,30.1ZM164,48q0.7,0.14,2.23-1.06a19.19,19.19,0,0,0,3.21-3.34,27,27,0,0,0,3-5,20,20,0,0,0,1.78-6h-0.8a2.45,2.45,0,0,0-1.22.42,19.68,19.68,0,0,0-4.54,4.12,23.48,23.48,0,0,0-2.93,4.58,13.17,13.17,0,0,0-1.26,4Q163.28,47.42,164,48Z"/><path class="cls-1" d="M190.36,50.66a8.31,8.31,0,0,0,4.26-.7,16.62,16.62,0,0,0,4.85-3,19,19,0,0,0,4-5,14.34,14.34,0,0,0,1.81-6.62,5.12,5.12,0,0,0-.24-1.72,3.73,3.73,0,0,0-.59-1.09,2.61,2.61,0,0,0-.73-0.63l-0.66-.35a4.08,4.08,0,0,0-2.83-.25,9,9,0,0,0-2.83,1.37A15.73,15.73,0,0,0,194.76,35a27.28,27.28,0,0,0-2.23,2.85A20,20,0,0,0,191,40.59a9.4,9.4,0,0,0-.73,2q-0.49-5.07-.87-8a27.94,27.94,0,0,0-.8-4.29,7.88,7.88,0,0,0-.84-0.74,2.59,2.59,0,0,0-1.61-.25q0.21,0.92.38,1.9T186.77,33l0.17,1.41c0,0.38.07,0.61,0.07,0.7q0.28,1.76.45,5t0.31,7q0.14,3.8.24,7.82t0.14,7.36c0,0.76,0,1.46,0,2.13,0.8,0.23,1.58.41,2.34,0.56,0-.92,0-1.88-0.06-2.93Q190.36,57.49,190.36,50.66Zm0.87-6.44a27.82,27.82,0,0,1,1.92-3.56q1.12-1.76,2.23-3.2a16.49,16.49,0,0,1,1.74-2,16.33,16.33,0,0,1,2.44-1.69A2.14,2.14,0,0,1,202.86,36a10,10,0,0,1-.84,3.7,14.94,14.94,0,0,1-2.69,4.19,13.47,13.47,0,0,1-5.06,3.45,6.31,6.31,0,0,1-1.85.56,2.86,2.86,0,0,1-1.15-.07,1.48,1.48,0,0,1-.84-0.49A7.88,7.88,0,0,1,191.23,44.22Z"/><path class="cls-1" d="M209.9,31.83h-1V31.47h2.45v0.36h-1v3H209.9v-3Z"/><path class="cls-1" d="M214.5,33.33c0-.46-0.05-1,0-1.43h0c-0.11.39-.25,0.8-0.42,1.26l-0.58,1.61h-0.32l-0.53-1.58c-0.16-.47-0.29-0.9-0.38-1.29h0c0,0.41,0,1-.06,1.47L212,34.79h-0.41l0.23-3.32h0.54L213,33.07c0.14,0.41.25,0.77,0.33,1.12h0c0.08-.34.2-0.7,0.35-1.12l0.59-1.61h0.54L215,34.79h-0.42Z"/><path class="cls-2" d="M14.69,30.44V30.25l0,0.09,0-.09v0.18c2.74,8,11,15.15,7.12,23.9a7.54,7.54,0,0,1-7.1,4H14.67a7.54,7.54,0,0,1-7.1-4C3.7,45.58,12,38.45,14.69,30.44Z"/><path class="cls-3" d="M7.09,47.51a7.12,7.12,0,0,1,0-14.23c3.14,0,7.09-5,7.09-8.94V40.39A7.1,7.1,0,0,1,7.09,47.51Z"/><path class="cls-4" d="M22.83,50.1a7.78,7.78,0,0,0,0-15.56c-3.43,0-7.75-5.45-7.75-9.77V42.33A7.76,7.76,0,0,0,22.83,50.1Z"/><path class="cls-5" d="M19.08,30.72a4,4,0,0,0,0-8.06c-1.78,0-4-2.82-4-5.07v9.1A4,4,0,0,0,19.08,30.72Z"/><path class="cls-6" d="M11.67,27.47a2.46,2.46,0,0,1,0-4.93c1.09,0,2.46-1.73,2.46-3.1V25A2.46,2.46,0,0,1,11.67,27.47Z"/><path class="cls-1" d="M45.78,6.26v7.56H22.53a3.48,3.48,0,0,0-3.09,2.07A4.18,4.18,0,0,0,19,17.6H12.24a13.71,13.71,0,0,1,.2-2.16c0.94-5.21,5-9.18,9.79-9.18h3.66V2.65h8.06V6.26H45.78Z"/><rect class="cls-1" x="24.51" width="10.63" height="2.01" rx="0.94" ry="0.94"/></svg>